<svg width="32" height="32" viewBox="0 0 32 32" fill="none" xmlns="http://www.w3.org/2000/svg"><rect width="32" height="32" rx="4" fill="#83B3D3"/><path d="M4.2544 8.1819L15.927 21.9637l11.6364-13.709-23.3091-.0728z" fill="#23A9E1"/><path d="M13.1275 13.3455h6.2909c-.4727-.2909-1.6-1.6727-2.1818-1.1636-.0364.0364-1.7818-2.0727-2.9091-1.0545-.9818.909-1.4546-.1091-2.5455.5818-1.3091.8727.7273 1.3454 1.3455 1.6363zm9.7091-1.2727l-3.5637.0364c1.4182-1.6364 2.0364-1.4546 3.5637-.0364z" fill="#fff"/><path d="M26.4 9.309v-.8726h.7636L26.4 9.309zM8.509 12.7274c.0365.0363.8728-.8728 2.2183-1.7818 1.2363-.8364 3.1272-1.7819 5.2363-1.7819 2.1091 0 4.0364.9819 5.2728 1.8182 1.3454.8727 2.1818 1.7455 2.2181 1.7818l-.909 1.0909c-1.6364.2182-2.8 1.4182-4.4 1.1637-.8-.1455-.8364-.5818-1.0546-1.0546-.1818-.3636-.4727-.2909-.8364-.4363-.3272-.1455-.5454-.4-1.2363-.2546-.5818.1455-.6546 1.0546-1.4182 1.0182-.4-.0364-.4364-.5818-1.0182-1.3091-1.4909-1.7818-2.8507-1.5598-3.7961.0765l-.2766-.331zm-3.0545-4.291v.691l-.5818-.691h.5819zm19.6 0h1.1637v1.091l-1.1637 1.3818V8.4364zm-1.4909 4.1455V8.4364h1.2728v2.6909l-1.2728 1.4545zM23.3818 8.8v3.6c-.4-.4-.8363-.7636-1.3091-1.0909L23.3818 8.8zm-1.4909-.109v2.4726c-.1818-.1091-.3273-.2545-.5454-.3636-.2546-.1455-.5091-.3273-.8-.4727l1.3454-1.6364zm-1.6-.0728v1.5636c-.3636-.1818-.7636-.3636-1.1273-.5454l1.1273-1.0182zm.2182-.1818h1.3454l-1.3454 1.6727V8.4364zm1.5636 0h1.3091l-1.3091 2.5818V8.4364zm-3.2 0h1.4182l-1.2727 1.1272c-.0364 0-.0727-.0363-.1091-.0363l-.0364-1.091zm-.1818.1454v.8727c-.3636-.1454-.7273-.2545-1.1273-.3272l1.1273-.5455zm-1.5273 0v.4728a44.1315 44.1315 0 00-.8-.1092l.8-.3636zm-2.4727 0l.8.3636c-.2909 0-.5454.0364-.8.1092v-.4728zm-1.4909 0l1.1273.5455c-.4.0727-.7637.1818-1.1273.3272v-.8727zm1.3091.4364l-1.2-.5818h1.2v.5818zm1.2727-.1455L14.7636 8.4h1.0182v.4727zm.2546-.4363h1.0545l-1.0545.4727v-.4727zm1.3454 0h1.1637l-1.1637.5818v-.5818zm-4.5091 1.1272L11.6 8.4364h1.4182v1.0909l-.1455.0363zm-1.3091-.9454l1.1273.9818c-.4.1455-.7636.3273-1.1273.5455V8.6182zM10 8.6909l1.3091 1.6364c-.4727.2545-.9091.5454-1.3091.8727V8.691zM8.4727 8.8l1.3091 2.5455c-.4727.3636-.909.7272-1.309 1.1636V8.8zm1.3455 2.1818L8.509 8.4h1.309v2.5818zm1.5636-.9091L10.0364 8.4h1.3454v1.6727zM6.8 10.7273L5.6364 9.3454v-.909H6.8v2.2909zm.2182-2.291h1.2727v4.0728l-1.2727-1.5273V8.4364zM4 8v5.3091l12 14.5091 12-14.3637V8H4z" fill="#491213"/><path d="M15.0547 24.7272l.9455-1.5272.9454 1.5272-.9454 1.5273-.9455-1.5273z" fill="#23A9E1"/><path d="M17.8907 19.1272c-1.2363-.7273-.9454-1.2727.0728-1.7818.5454-.2545 1.7454-1.2364 2.2182-.9091l-2.291 2.6909zm-.8363.9091c-.7273-.0364-1.5637-.1454-2.2909.0364.4363.1091 1.5272.4363.5091.6909.3636.5091.9454.4727 1.3091.0363-.1455-.0727-.2546-.1818-.3637-.2545.4-.1091.7637-.3273.8364-.5091zm.4363-.5818c-.3272-.2909-.6909-.2909-.9818 0-.4363-.7636-1.9636-.5091-2.6909-.6182.4.9455 3.4909 1.1273 3.6727.6182zm-2.4727-.8c-.5818-.1818-2.4727-.1455-1.2363-.6546.4-.1454 2.4363.0364 1.2363.6546zm.7273-1.0909c-.1818-.4.1454-.8728.6182-.5091.4363.2909-.2182.7273-.6182.5091zm-1.0545.0363c-.8364.2546-1.9273-.2909-.5819-.5454.8364-.1818 1.7091.1818.5819.5454.0363 0-.0364 0 0 0zm-.9455-2.2545c-.1818.5818-.5455.6909-.5091 0 .0364-.8364.5818-.6182 1.1636-.9455.4728-.2545.7273-1.2363 1.5637-.6545.3636.2545.8.0364.9091.4364 0-.0364-1.0546 2.4363-.4728 2.4363-1.1636 0-.6545-1.3818-.2181-2.3273-.4364.2182-1.1273 1.5637-.5455 1.8182-.2909.4-1.2364.9455-1.7091.5455-.4-.3637-.1818-.8364-.1818-1.3091zm-1.4545 1.0182c-2.0364 0-.6546-3.1273.0363-2.9455.8.2546.6909 2.9818-.0363 2.9455zm-2.2546-2.9818c-.9454-.0364-.5454-.9455.1091-1.1273.6182-.1818 1.8909.4 2.3273.8-.6546.2182-1.4909.1818-2.2182.2182-.0727-.7273-.2546-.4728-.2182.1091z" fill="#DC6243"/><path d="M17.0183 17.3819c-1.0545-1.0909 1.5637-.9818 2-1.3818.291.1091 2.5455-1.9637 3.091-1.8182-.4.4727-1.2364 1.9273-1.8182 1.9273-.4728 0-.9455-.0728-1.3091.2545-.5455.5091-1.4182.7636-1.9637 1.0182z" fill="#F49774"/><path d="M17.3457 16.0727c-.5818.3273-1.1273-.9091-.1091-.8.6546.0727 1.3455-.0727 1.9636.0364-.4727.5454-1.1272.8363-1.8545.7636z" fill="#F4B1A4"/><path d="M9.4907 15.5999c.109.1455.2181.291.1818.5091 0 .1455-.2182.3637-.0727.4364l.5454-.6545c-.1455-.0364-1.2727-1.3819-1.2727-1.5273l-.7637.4c.0364.1454.291 0 .4364 0 .1818 0 .3273.1454.4727.2545-.4.3273-1.3818 1.2-1.4909 1.2-.0363 0-.2545-.1454-.2545 0 0 .0728.2182.2546.2545.2909l.5091.6182c.1455-.0727-.0363-.1818.0364-.2909.0363-.0727 1.1636-.9818 1.4182-1.2364zm-1.2364-1.6363c.109-.0364.1454.1091.2182 0l-.5818-.6909c-.0728-.1091-.1819-.2182-.1819 0 .0364.1454-1.4545 1.3454-1.5272 1.3818-.1091.0364-.1819-.1091-.2546.0364.1818.2181.3273.4.5091.6181.0727.0728.1091.1455.1818.2182.0728.0727.0364-.1454.0364-.1454-.0364-.1091.109-.2182.2182-.2909.3636-.3637 1.2727-1.1273 1.3818-1.1273zm-2.0727-.2182c-.4.1091-.8728-.0364-.9819-.4727-.1454-.4364.1455-.8728.4728-1.1273.3272-.2545.8363-.2182 1.0182.1818.0727.1818.0363.4-.0364.5818-.0364.1091-.1455.2182 0 .2909.2182-.2545.4-.509.6182-.7636-.2546-.1454-.3637-.4-.5455-.6182-.2182-.2545-.4727-.5091-.8363-.5454-.691-.1091-1.3091.6182-1.3819 1.2363-.0363.3273.0728.6546.291.9455.1818.2182.4363.4.5818.6545.0727.0364.6545-.2545.7636-.2909.0727 0 .0364-.0363.0364-.0727-.1819.0727 0 0 0 0zm9.2727 8.5818c-.2545-.1818-.9455-1.0909-1.0909-1.2727l-.0727-.1091-.0728.0364c-.0363.0363.0364.1454 0 .2181-.1818.2909-1.3454 1.1637-1.4181 1.2364-.1455.0727-.291-.0364-.3637.0727.1818.2182.6546.8364.7273.8364.1091 0 .0364-.1818.0364-.2182.0363-.0727.6181-.5818.8363-.7636.0727-.0728.1455.1091.2182.1818.0727.1091.1091.2545.0727.3636-.0363.0728-.1818.2182-.0727.2909.1455-.1818.5455-.6545.6182-.7272.0727-.0728-.1455 0-.1091-.0364-.0727.0364-.1818.0727-.2546 0-.0363 0-.2545-.2545-.2181-.2909.1091-.0727.2181-.2182.3636-.2545.2182-.0364.3636.3636.4.509.0364.1455.0364.291-.0364.4-.0363.1091-.1091.1819 0 .2182l.5091-.6909c0 .0364-.0363.0364-.0727 0-.0364 0 .0364.0364 0 0zm-3.3455-3.2364c-.2545 0-.509.1091-.7272.291-.5091.4363-.5818 1.2-.1818 1.7454.4727.6182 1.2363.6909 1.8545.2546.5091-.4364.5818-1.2.1818-1.7455-.2909-.3636-.7273-.5455-1.1273-.5455zm.4364.5091c.3273-.0363.5455.291.4.6546-.1454.3636-.5091.7273-.8727.8727-.4364.1818-.7273-.1818-.5455-.6182.1455-.3636.5091-.7272.8728-.8727.0363 0 .0727-.0364.1454-.0364zm-1.0182-1.6727c.1091 0 .2182.1455.2909 0l-.5091-.6182c-.1454.0728 0 .1455-.0363.2182-.0727.1091-.6182.1818-.7637.2182.0364-.1455.2182-.6182.291-.6546.1454-.109.2181.1091.2909-.0363l-.6546-.7636c-.0727-.0728-.1454-.2546-.2182-.1455 0 0 0 .3636-.0363.4-.0364.0727-.2182.8727-.4364 1.0545-.109.1091-.5455.4728-.6545.5091-.1091.0364-.1819-.1454-.291 0l.5819.6909c.0363.0364.1454.2182.1818.2182.109.0364 0-.2182.0364-.2545.0363-.1091.5818-.6546.8363-.6909.3273-.0728.7273-.1819 1.0909-.1455.0728 0-.0727 0 0 0zm8.8 2.4364c.0364.1454.0728.3272.0364.4727-.0364.2182-.2182.6909-.5091.5455-.2909-.1455-.5091-.4-.7636-.6182.1818-.2182.3636-.4.6909-.2909.0727.0363.1454 0 .0727-.0728-.1091-.0727-.7273-.4727-.7636-.4363-.0728.0727.1091.2182.0363.3636-.0363.1091-.1454.1818-.2182.2909-.1818-.1454-.4363-.2909-.2545-.5454.1455-.1455.2909-.2909.5091-.3273.1454-.0364.4364.1091.4727-.0364-.2545-.1091-.5091-.2545-.7636-.3636.0363.1818-.8 1.0545-.9818 1.2727-.0364.0364-.1455.1455-.1455.1818 0 .1091.1455.0364.1455.0364.1091-.0364 1.6 1.2 1.6363 1.3091.0364.0727-.0363.1454 0 .1818 0 0 .0364.0364.0728.0364.109-.1091 1.0545-1.4182 1.2727-1.4546l-.5455-.8727c-.1454.0727-.0363.2545 0 .3273zm-1.4545 1.6c-.4727-.3273-1.3091.2909-1.4546.3636-.2545.1091-.4363-.1454-.2909-.3636.1091-.1818.3273-.2909.5455-.2909.0727 0 .3273.0363.3273 0 .0363-.0364.0363-.0364 0-.0728-.2182-.1454-.4-.2909-.6182-.4-.0364.2546-.3273.4-.4728.5819-.1818.2181-.3636.4727-.3636.7272 0 .2546.1455.5091.4.6182.2546.1455.5455.0364.8-.1091.1455-.1091.2909-.2182.4364-.2909.2182-.1091.5454 0 .4727.2909-.0727.2546-.3273.4727-.5818.5455-.1455.0363-.2909.0363-.4364-.0364-.1091-.0363-.2182-.1818-.2909-.0364l.8364.5819c.0363-.1818.1091-.2546.2545-.3637.1818-.1454.3273-.3272.4727-.5091.291-.3272.4-.9091-.0363-1.2363zm6.4-10.2182c0 .0364 0 .0364 0 0l-.3273.3636-.2909.3637c-.0727.0727-.1091.1091 0 .1818.1818-.1091 1.2727 1.7454 1.2 2-.1818.0727-1.6364-1.2-1.6727-1.2727 0-.0364.0727-.2546-.0364-.2182-.0364 0-.1818.2182-.2182.2545l-.2182.2546c.0728.1091.1091 0 .2182 0 .0728.0363.4364.3272.5455.4-.1818 0-.6182.0363-.6909.0363-.2182.0364-.1091-.1454-.2546-.2181l-.5454.6545-.3273.3636v.0364c.0727.0727.0364.0364.1455 0 .109-.0364 1.5636 1.1636 1.6 1.2364.0727.1091-.0364.2181.109.2909l.4364-.5091c.0364-.0364.0364-.0364 0-.0364-.1091-.0727-.1091.0364-.2545.0364-.1091-.0364-1.0546-.8-1.3819-1.0909l1.9273-.0728c.0727 0 .2546.2182.2546.291-.0364.0727-.1091.1454 0 .1818.1091-.1455.2181-.2546.3272-.4l.0364-.0728c.0364 0 .0364-.0363.0364-.0727l.0363-.0363c.1091-.1091.4364-.4728.4-.5091-.1091-.1091-.1454.1091-.2909 0-.0727-.0728-.2909-.4364-.3273-.5091-.0727-.1091.1455-.2182.2182-.2546.1818-.1091.7637-.2909.8364.0728 0 .0727-.0727.1454-.0364.1818 0 0 .0364.0727.0728.0363l.7636-.9454-.0727-.0727c-.1819.1818-2-.5455-2.1091-.6546-.0364-.0727-.0364-.2909-.1091-.2909zm-.0727.9455c.2909.109.5454.2181.8363.3636l-.2182.1091c-.0727.0363-.1454.1091-.2181.1818l-.4-.6545zm-2.4 2.8c-.4-.0364-.8.1454-1.091.4727-.4363.5454-.4 1.3454.1455 1.7818.5455.4364 1.3455.3273 1.7818-.1818.4364-.5455.4-1.3455-.1454-1.7818-.1819-.1455-.4364-.2546-.6909-.2909zm-.5091.5818c.2181 0 .4727.1454.6181.2545.291.1818.8.6182.5455.9818 0-.0363.0364-.0363-.0364.0364-.2909.2909-.8.0364-1.0545-.1818-.2546-.1818-.7273-.6182-.4364-.9818.1091-.0728.2182-.1091.3637-.1091zm-1.1273 1.5636c-.4364-.0364-.8727.1818-1.2.5818-.2182.2909-.4727.5455-.6909.8364.0727.1091.1818-.0364.2909.0363.1091.0728 1.4909 1.2 1.4909 1.2728.0364.1091-.0727.1454.0364.2182.0363.0363 1.0545-1.2364 1.1636-1.4546.1455-.4.0364-.8727-.2909-1.1636.0364.0363.0727.0363 0 0-.2909-.2182-.5455-.3273-.8-.3273zm-.4.5818h.1091c.5091.1455 1.2363.7637.7636 1.3091l-.1454.1455c-.0728.0727-1.5273-1.0909-1.4546-1.1637.1455-.1818.4727-.3272.7273-.2909z" fill="#fff"/></svg>